<svg width="124" height="40" viewBox="0 0 124 40" fill="none" xmlns="http://www.w3.org/2000/svg">
<path d="M112.1 0H9.5C8.8 0 8.2 0.1 7.5 0.2C6.9 0.3 6.2 0.5 5.6 0.8C5 1.1 4.5 1.5 4 2C3.5 2.5 3.1 3 2.8 3.6C2.5 4.2 2.3 4.9 2.2 5.5C2.1 6.2 2 6.9 2 7.5V32.4C2 33.1 2.1 33.7 2.2 34.4C2.3 35.1 2.5 35.7 2.8 36.3C3.1 37 3.5 37.5 4 38C4.5 38.5 5 38.9 5.6 39.2C6.2 39.5 6.8 39.7 7.5 39.8C8.2 39.9 8.8 40 9.5 40H114.1C114.8 40 115.4 39.9 116.1 39.8C116.8 39.7 117.4 39.5 118 39.2C118.6 38.9 119.1 38.5 119.6 38C120.1 37.5 120.5 37 120.8 36.4C121.1 35.8 121.3 35.2 121.4 34.5C121.5 33.8 121.6 33.2 121.6 32.5V31.6V9.5V8.4V7.5C121.6 6.8 121.5 6.2 121.4 5.5C121.3 4.8 121.1 4.2 120.8 3.6C120.2 2.4 119.2 1.4 118 0.8C117.4 0.5 116.8 0.3 116.1 0.2C115.4 0.1 114.8 0 114.1 0H112.1V0Z" fill="#A6A6A6"/>
<path d="M10.4 39.1001H9.50005C8.90005 39.1001 8.20005 39.0001 7.60005 38.9001C7.00005 38.8001 6.50005 38.6001 5.90005 38.4001C5.40005 38.1001 4.90005 37.8001 4.50005 37.4001C4.10005 37.0001 3.70005 36.5001 3.50005 36.0001C3.20005 35.5001 3.10005 34.9001 3.00005 34.3001C2.90005 33.7001 2.80005 33.1001 2.80005 32.4001V8.40015V7.50015C2.80005 6.90015 2.90005 6.20015 3.00005 5.60015C3.10005 5.10015 3.30005 4.50015 3.60005 4.00015C3.90005 3.50015 4.20005 3.00015 4.60005 2.60015C5.00005 2.20015 5.50005 1.90015 6.00005 1.60015C6.50005 1.30015 7.10005 1.20015 7.70005 1.10015C8.30005 1.00015 8.90005 0.900146 9.60005 0.900146H114.2C114.8 0.900146 115.4 1.00015 116.1 1.10015C116.7 1.20015 117.2 1.40015 117.8 1.60015C118.8 2.10015 119.7 3.00015 120.2 4.00015C120.5 4.50015 120.6 5.10015 120.7 5.60015C120.8 6.20015 120.9 6.90015 120.9 7.50015V32.4001C120.9 33.0001 120.8 33.6001 120.7 34.3001C120.6 34.9001 120.4 35.4001 120.2 36.0001C119.9 36.5001 119.6 37.0001 119.2 37.4001C118.8 37.8001 118.3 38.2001 117.8 38.4001C117.3 38.7001 116.7 38.9001 116.1 38.9001C115.5 39.0001 114.9 39.1001 114.2 39.1001H10.4Z" fill="black"/>
<path d="M26.8001 20.3001C26.8001 18.6001 27.7001 17.0001 29.2001 16.1001C28.3001 14.8001 26.8001 14.0001 25.2001 13.9001C23.5001 13.7001 21.9001 14.9001 21.0001 14.9001C20.1001 14.9001 18.8001 13.9001 17.4001 13.9001C15.5001 14.0001 13.8001 15.0001 12.9001 16.6001C11.0001 19.9001 12.4001 24.9001 14.3001 27.6001C15.2001 28.9001 16.3001 30.4001 17.7001 30.4001C19.1001 30.3001 19.6001 29.5001 21.3001 29.5001C23.0001 29.5001 23.4001 30.4001 24.9001 30.4001C26.4001 30.4001 27.3001 29.1001 28.2001 27.7001C28.9001 26.8001 29.4001 25.7001 29.7001 24.6001C27.9001 24.0001 26.8001 22.2001 26.8001 20.3001V20.3001ZM24.0001 12.2001C24.8001 11.2001 25.2001 10.0001 25.1001 8.70007C23.9001 8.80007 22.7001 9.40007 21.9001 10.4001C21.1001 11.3001 20.7001 12.5001 20.8001 13.8001C22.1001 13.8001 23.2001 13.2001 24.0001 12.2001ZM44.3001 27.1001H39.6001L38.5001 30.5001H36.5001L41.0001 18.1001H43.0001L47.5001 30.5001H45.5001L44.3001 27.1001ZM40.1001 25.6001H43.9001L42.0001 20.1001H41.9001L40.1001 25.6001V25.6001ZM57.2001 26.0001C57.2001 28.8001 55.7001 30.6001 53.4001 30.6001C52.2001 30.7001 51.1001 30.0001 50.6001 29.0001V33.5001H48.7001V21.5001H50.5001V23.0001C51.1001 22.0001 52.2001 21.4001 53.4001 21.4001C55.6001 21.3001 57.2001 23.2001 57.2001 26.0001ZM55.2001 26.0001C55.2001 24.2001 54.3001 23.0001 52.8001 23.0001C51.4001 23.0001 50.4001 24.2001 50.4001 26.0001C50.4001 27.8001 51.4001 29.0001 52.8001 29.0001C54.3001 29.0001 55.2001 27.8001 55.2001 26.0001ZM67.1001 26.0001C67.1001 28.8001 65.6001 30.6001 63.3001 30.6001C62.1001 30.7001 61.0001 30.0001 60.5001 29.0001V33.5001H58.6001V21.5001H60.4001V23.0001C61.0001 22.0001 62.1001 21.4001 63.3001 21.4001C65.6001 21.3001 67.1001 23.2001 67.1001 26.0001ZM65.2001 26.0001C65.2001 24.2001 64.3001 23.0001 62.8001 23.0001C61.4001 23.0001 60.4001 24.2001 60.4001 26.0001C60.4001 27.8001 61.4001 29.0001 62.8001 29.0001C64.3001 29.0001 65.2001 27.8001 65.2001 26.0001ZM73.7001 27.0001C73.8001 28.2001 75.0001 29.0001 76.7001 29.0001C78.3001 29.0001 79.4001 28.2001 79.4001 27.1001C79.4001 26.1001 78.7001 25.6001 77.1001 25.2001L75.5001 24.8001C73.2001 24.3001 72.2001 23.2001 72.2001 21.5001C72.2001 19.4001 74.1001 17.9001 76.7001 17.9001C79.3001 17.9001 81.1001 19.4001 81.2001 21.5001H79.3001C79.2001 20.3001 78.2001 19.5001 76.7001 19.5001C75.2001 19.5001 74.2001 20.3001 74.2001 21.4001C74.2001 22.3001 74.9001 22.8001 76.5001 23.2001L77.9001 23.5001C80.4001 24.1001 81.5001 25.1001 81.5001 26.9001C81.5001 29.2001 79.7001 30.7001 76.7001 30.7001C73.9001 30.7001 72.1001 29.3001 72.0001 27.0001H73.7001V27.0001ZM85.3001 19.3001V21.4001H87.0001V22.9001H85.3001V27.9001C85.3001 28.7001 85.6001 29.0001 86.4001 29.0001H87.0001V30.5001C86.7001 30.6001 86.3001 30.6001 86.0001 30.6001C84.2001 30.6001 83.5001 29.9001 83.5001 28.2001V23.0001H82.2001V21.5001H83.5001V19.4001H85.3001V19.3001ZM88.1001 26.0001C88.1001 23.2001 89.8001 21.4001 92.4001 21.4001C95.0001 21.4001 96.7001 23.2001 96.7001 26.0001C96.7001 28.9001 95.0001 30.6001 92.4001 30.6001C89.7001 30.6001 88.1001 28.8001 88.1001 26.0001ZM94.8001 26.0001C94.8001 24.0001 93.9001 22.9001 92.4001 22.9001C90.9001 22.9001 90.0001 24.0001 90.0001 26.0001C90.0001 28.0001 90.9001 29.1001 92.4001 29.1001C93.9001 29.1001 94.8001 27.9001 94.8001 26.0001V26.0001ZM98.2001 21.4001H100V23.0001C100.2 22.0001 101.2 21.3001 102.2 21.4001C102.4 21.4001 102.6 21.4001 102.8 21.5001V23.2001C102.5 23.1001 102.2 23.1001 102 23.1001C101 23.1001 100.1 23.9001 100.1 24.9001V30.6001H98.2001V21.4001ZM111.4 27.8001C111.2 29.4001 109.6 30.6001 107.5 30.6001C104.9 30.6001 103.2 28.8001 103.2 26.0001C103.2 23.2001 104.8 21.3001 107.4 21.3001C109.9 21.3001 111.5 23.0001 111.5 25.8001V26.4001H105.1V26.5001C105 27.8001 105.9 28.9001 107.2 29.1001H107.5C108.4 29.2001 109.3 28.7001 109.6 27.8001H111.4V27.8001ZM105.1 25.1001H109.6C109.7 23.9001 108.7 22.9001 107.5 22.8001H107.3C106.1 22.8001 105.1 23.8001 105.1 25.1001Z" fill="white"/>
<path d="M39.8001 8.70002C41.3001 8.60002 42.5001 9.70003 42.6001 11.1V11.6C42.6001 13.5 41.6001 14.6 39.8001 14.6H37.6001V8.60003L39.8001 8.70002ZM38.6001 13.9H39.7001C40.7001 14 41.6001 13.2 41.7001 12.1V11.7C41.8001 10.7 41.1001 9.70003 40.1001 9.60003H38.6001V13.9ZM43.7001 12.4C43.6001 11.2 44.5001 10.2 45.6001 10.1C46.8001 10 47.8001 10.9 47.9001 12V12.4C48.0001 13.6 47.2001 14.6 46.0001 14.7C44.8001 14.8 43.8001 14 43.7001 12.8V12.4ZM47.0001 12.4C47.0001 11.4 46.6001 10.9 45.8001 10.9C45.0001 10.9 44.6001 11.5 44.6001 12.4C44.6001 13.4 45.0001 14 45.8001 14C46.6001 14 47.0001 13.4 47.0001 12.4ZM53.6001 14.7H52.7001L51.8001 11.4H51.7001L50.8001 14.7H49.9001L48.7001 10.2H49.6001L50.4001 13.6H50.5001L51.4001 10.2H52.3001L53.2001 13.6H53.3001L54.1001 10.2H55.0001L53.6001 14.7V14.7ZM55.9001 10.2H56.8001V10.9H56.9001C57.1001 10.4 57.7001 10.1 58.2001 10.1C59.0001 10 59.7001 10.6 59.8001 11.5V14.7H58.9001V12C58.9001 11.3 58.6001 10.9 57.9001 10.9C57.3001 10.9 56.8001 11.3 56.8001 11.9V14.7H55.9001V10.2ZM61.1001 8.40002H62.0001V14.7H61.1001V8.40002V8.40002ZM63.2001 12.4C63.1001 11.2 63.9001 10.2 65.1001 10.1C66.3001 10 67.3001 10.8 67.4001 12V12.4C67.5001 13.6 66.7001 14.6 65.5001 14.7C64.3001 14.8 63.3001 14 63.2001 12.8V12.4ZM66.6001 12.4C66.6001 11.4 66.2001 10.9 65.4001 10.9C64.6001 10.9 64.2001 11.5 64.2001 12.4C64.2001 13.4 64.6001 14 65.4001 14C66.1001 14 66.6001 13.4 66.6001 12.4ZM68.4001 13.4C68.4001 12.6 69.0001 12.1 70.1001 12.1L71.3001 12V11.6C71.3001 11.1 71.0001 10.9 70.4001 10.9C69.9001 10.9 69.6001 11.1 69.5001 11.4H68.6001C68.7001 10.6 69.4001 10.1 70.4001 10.1C71.5001 10.1 72.2001 10.7 72.2001 11.6V14.7H71.3001V14.1H71.2001C70.9001 14.6 70.4001 14.8 69.8001 14.8C69.1001 14.9 68.4001 14.3 68.3001 13.6C68.4001 13.5 68.4001 13.5 68.4001 13.4V13.4ZM71.3001 13V12.6L70.2001 12.7C69.6001 12.7 69.3001 13 69.3001 13.3C69.3001 13.7 69.7001 13.9 70.1001 13.9C70.7001 14.1 71.2001 13.7 71.3001 13C71.3001 13.1 71.3001 13.1 71.3001 13V13ZM73.3001 12.4C73.3001 11 74.0001 10.1 75.2001 10.1C75.8001 10.1 76.3001 10.4 76.6001 10.9H76.7001V8.40002H77.6001V14.7H76.7001V14H76.6001C76.3001 14.5 75.8001 14.8 75.2001 14.8C74.1001 14.8 73.3001 13.9 73.3001 12.4V12.4ZM74.3001 12.4C74.3001 13.4 74.7001 13.9 75.5001 13.9C76.3001 13.9 76.7001 13.3 76.7001 12.4C76.7001 11.5 76.2001 10.9 75.5001 10.9C74.7001 10.9 74.3001 11.5 74.3001 12.4ZM81.2001 12.4C81.1001 11.2 81.9001 10.2 83.1001 10.1C84.3001 10 85.3001 10.8 85.4001 12V12.4C85.5001 13.6 84.7001 14.6 83.5001 14.7C82.3001 14.8 81.3001 14 81.2001 12.8V12.4ZM84.6001 12.4C84.6001 11.4 84.2001 10.9 83.4001 10.9C82.6001 10.9 82.2001 11.5 82.2001 12.4C82.2001 13.4 82.6001 14 83.4001 14C84.1001 14 84.6001 13.4 84.6001 12.4ZM86.7001 10.2H87.6001V10.9H87.7001C87.9001 10.4 88.5001 10.1 89.0001 10.1C89.8001 10 90.5001 10.6 90.6001 11.5V14.7H89.7001V12C89.7001 11.3 89.4001 10.9 88.7001 10.9C88.1001 10.9 87.6001 11.3 87.6001 11.9V14.7H86.7001V10.2V10.2ZM95.5001 9.10003V10.2H96.5001V11H95.5001V13.3C95.5001 13.8 95.7001 14 96.1001 14H96.4001V14.7H95.9001C94.9001 14.7 94.5001 14.4 94.5001 13.5V11H93.8001V10.3H94.5001V9.10003H95.5001V9.10003ZM97.7001 8.40002H98.6001V10.9H98.7001C98.9001 10.4 99.5001 10 100.1 10.1C100.9 10.1 101.6 10.7 101.7 11.5V14.7H100.8V12C100.8 11.3 100.5 10.9 99.8001 10.9C99.2001 10.9 98.7001 11.3 98.7001 11.9V14.7H97.8001V8.40002H97.7001ZM106.8 13.5C106.6 14.3 105.7 14.9 104.9 14.8C103.8 14.8 102.8 13.9 102.8 12.8V12.5C102.6 11.4 103.4 10.3 104.6 10.2H104.9C106.2 10.2 106.9 11.1 106.9 12.5V12.8H103.7V12.9C103.6 13.6 104.1 14.1 104.8 14.2H104.9C105.3 14.3 105.8 14 106 13.7H106.8V13.5ZM103.6 12H105.9C105.9 11.4 105.5 10.9 104.9 10.8H104.8C104.2 10.9 103.6 11.4 103.6 12Z" fill="white"/>
</svg>
