<svg width="24" height="24" viewBox="0 0 24 24" fill="none" xmlns="http://www.w3.org/2000/svg">
<g clip-path="url(#clip0_69_22)">
<path d="M6.74544 3.75C6.29574 3.75 5.99594 4.2 5.99594 4.5V8.25H4.49696V4.5C4.49696 4.05 4.19716 3.75 3.74746 3.75C3.29777 3.75 2.99797 4.2 2.99797 4.5V8.25H1.49899V4.5C1.49899 4.05 1.19919 3.75 0.749493 3.75C0.299797 3.75 0 4.2 0 4.5V9.45C0 10.8 1.04929 11.85 2.24848 12V22.5C2.24848 23.4 2.84807 24 3.74746 24C4.64686 24 5.24645 23.4 5.24645 22.5V12C6.44564 11.85 7.49493 10.8 7.49493 9.45V4.5C7.49493 4.2 7.19513 3.75 6.74544 3.75ZM9.74341 4.5V13.5H11.2424V22.5C11.2424 23.4 11.842 24 12.7414 24C13.6408 24 14.2404 23.4 14.2404 22.5V0C11.6921 0 9.74341 1.95 9.74341 4.5ZM20.2363 3C18.1377 3 16.4888 5.25 16.4888 7.95C16.3389 9.75 17.2383 11.4 18.7373 12.45V22.5C18.7373 23.4 19.3369 24 20.2363 24C21.1357 24 21.7353 23.4 21.7353 22.5V12.45C23.2343 11.4 24.1337 9.75 23.9838 7.95C23.9838 5.25 22.3349 3 20.2363 3Z" fill="black"/>
</g>
<defs>
<clipPath id="clip0_69_22">
<rect width="24" height="24" fill="white"/>
</clipPath>
</defs>
</svg>
