<svg width="124" height="37" viewBox="0 0 124 37" fill="none" xmlns="http://www.w3.org/2000/svg">
<g clip-path="url(#clip0_142_21)">
<g clip-path="url(#clip1_142_21)">
<path d="M119.407 36.7407H4.59259C2.02074 36.7407 0 34.72 0 32.1481V4.59259C0 2.02074 2.02074 0 4.59259 0H119.407C121.979 0 124 2.02074 124 4.59259V32.1481C124 34.72 121.979 36.7407 119.407 36.7407Z" fill="black"/>
<path d="M119.407 0.734815C121.52 0.734815 123.265 2.48 123.265 4.59259V32.1481C123.265 34.2607 121.52 36.0059 119.407 36.0059H4.59259C2.48 36.0059 0.734815 34.2607 0.734815 32.1481V4.59259C0.734815 2.48 2.48 0.734815 4.59259 0.734815H119.407ZM119.407 0H4.59259C2.02074 0 0 2.11259 0 4.59259V32.1481C0 34.72 2.02074 36.7407 4.59259 36.7407H119.407C121.979 36.7407 124 34.72 124 32.1481V4.59259C124 2.11259 121.979 0 119.407 0Z" fill="#A6A6A6"/>
<path d="M43.5377 9.36888C43.5377 10.1037 43.354 10.7467 42.8948 11.2059C42.3436 11.757 41.7007 12.0326 40.874 12.0326C40.0474 12.0326 39.4044 11.757 38.8533 11.2059C38.3022 10.6548 38.0266 10.0118 38.0266 9.18518C38.0266 8.35851 38.3022 7.71555 38.8533 7.16444C39.4044 6.61332 40.0474 6.33777 40.874 6.33777C41.2414 6.33777 41.6088 6.42962 41.9762 6.61332C42.3436 6.79703 42.6192 6.98073 42.8029 7.25629L42.3436 7.71555C41.9762 7.25629 41.517 7.07258 40.874 7.07258C40.3229 7.07258 39.7718 7.25629 39.4044 7.71555C38.9451 8.08295 38.7614 8.63407 38.7614 9.27703C38.7614 9.91999 38.9451 10.4711 39.4044 10.8385C39.8636 11.2059 40.3229 11.4815 40.874 11.4815C41.517 11.4815 41.9762 11.2978 42.4355 10.8385C42.7111 10.563 42.8948 10.1955 42.8948 9.73629H40.874V9.00147H43.5377V9.36888V9.36888ZM47.7629 7.07258H45.2829V8.81777H47.5792V9.46073H45.2829V11.2059H47.7629V11.9407H44.5481V6.42962H47.7629V7.07258ZM50.794 11.9407H50.0592V7.07258H48.4977V6.42962H52.3555V7.07258H50.794V11.9407ZM55.0192 11.9407V6.42962H55.754V11.9407H55.0192ZM58.877 11.9407H58.1422V7.07258H56.5807V6.42962H60.3466V7.07258H58.7851L58.877 11.9407ZM67.6029 11.2059C67.0518 11.757 66.4088 12.0326 65.5822 12.0326C64.7555 12.0326 64.1125 11.757 63.5614 11.2059C63.0103 10.6548 62.7348 10.0118 62.7348 9.18518C62.7348 8.35851 63.0103 7.71555 63.5614 7.16444C64.1125 6.61332 64.7555 6.33777 65.5822 6.33777C66.4088 6.33777 67.0518 6.61332 67.6029 7.16444C68.154 7.71555 68.4296 8.35851 68.4296 9.18518C68.4296 10.0118 68.154 10.6548 67.6029 11.2059ZM64.1125 10.7467C64.4799 11.1141 65.0311 11.3896 65.5822 11.3896C66.1333 11.3896 66.6844 11.2059 67.0518 10.7467C67.4192 10.3792 67.6948 9.82814 67.6948 9.18518C67.6948 8.54221 67.5111 7.9911 67.0518 7.62369C66.6844 7.25629 66.1333 6.98073 65.5822 6.98073C65.0311 6.98073 64.4799 7.16444 64.1125 7.62369C63.7451 7.9911 63.4696 8.54221 63.4696 9.18518C63.4696 9.82814 63.6533 10.3792 64.1125 10.7467ZM69.4399 11.9407V6.42962H70.2666L72.9303 10.7467V6.42962H73.6651V11.9407H72.9303L70.0829 7.43999V11.9407H69.4399V11.9407Z" fill="white" stroke="white" stroke-width="0.2" stroke-miterlimit="10"/>
<path d="M62.5512 20.0237C60.3468 20.0237 58.6016 21.677 58.6016 23.9733C58.6016 26.1778 60.3468 27.923 62.5512 27.923C64.7557 27.923 66.5009 26.2696 66.5009 23.9733C66.5009 21.5852 64.7557 20.0237 62.5512 20.0237ZM62.5512 26.2696C61.3571 26.2696 60.3468 25.2593 60.3468 23.8815C60.3468 22.5037 61.3571 21.4933 62.5512 21.4933C63.7453 21.4933 64.7557 22.4119 64.7557 23.8815C64.7557 25.2593 63.7453 26.2696 62.5512 26.2696ZM54.009 20.0237C51.8046 20.0237 50.0594 21.677 50.0594 23.9733C50.0594 26.1778 51.8046 27.923 54.009 27.923C56.2134 27.923 57.9586 26.2696 57.9586 23.9733C57.9586 21.5852 56.2134 20.0237 54.009 20.0237ZM54.009 26.2696C52.8149 26.2696 51.8046 25.2593 51.8046 23.8815C51.8046 22.5037 52.8149 21.4933 54.009 21.4933C55.2031 21.4933 56.2134 22.4119 56.2134 23.8815C56.2134 25.2593 55.2031 26.2696 54.009 26.2696ZM43.8134 21.2178V22.8711H47.7631C47.6712 23.7896 47.3038 24.5244 46.8446 24.9837C46.2934 25.5348 45.3749 26.1778 43.8134 26.1778C41.3334 26.1778 39.4964 24.2489 39.4964 21.7689C39.4964 19.2889 41.4253 17.36 43.8134 17.36C45.0994 17.36 46.1097 17.9111 46.8446 18.5541L48.0386 17.36C47.0283 16.4415 45.7423 15.7067 43.9053 15.7067C40.5986 15.7067 37.7512 18.4622 37.7512 21.7689C37.7512 25.0756 40.5986 27.8311 43.9053 27.8311C45.7423 27.8311 47.0283 27.28 48.1305 26.0859C49.2327 24.9837 49.6001 23.4222 49.6001 22.2281C49.6001 21.8607 49.6001 21.4933 49.5083 21.2178H43.8134V21.2178ZM85.5142 22.5037C85.1468 21.5852 84.2283 20.0237 82.2075 20.0237C80.1868 20.0237 78.5334 21.5852 78.5334 23.9733C78.5334 26.1778 80.1868 27.923 82.3912 27.923C84.1364 27.923 85.2386 26.8207 85.606 26.1778L84.3201 25.2593C83.8609 25.9022 83.3097 26.3615 82.3912 26.3615C81.4727 26.3615 80.9216 25.9941 80.4623 25.1674L85.6979 22.963L85.5142 22.5037V22.5037ZM80.1868 23.7896C80.1868 22.32 81.3809 21.4933 82.2075 21.4933C82.8505 21.4933 83.4934 21.8607 83.6771 22.32L80.1868 23.7896ZM75.8697 27.5556H77.6149V16.0741H75.8697V27.5556ZM73.1142 20.8504C72.6549 20.3911 71.9201 19.9319 71.0016 19.9319C69.0727 19.9319 67.2357 21.677 67.2357 23.8815C67.2357 26.0859 68.9809 27.7393 71.0016 27.7393C71.9201 27.7393 72.6549 27.28 73.0223 26.8207H73.1142V27.3718C73.1142 28.8415 72.2875 29.6681 71.0016 29.6681C69.9912 29.6681 69.2564 28.9333 69.0727 28.2904L67.6031 28.9333C68.0623 29.9437 69.1646 31.2296 71.0934 31.2296C73.1142 31.2296 74.7675 30.0356 74.7675 27.1881V20.2074H73.1142V20.8504V20.8504ZM71.0934 26.2696C69.8994 26.2696 68.889 25.2593 68.889 23.8815C68.889 22.5037 69.8994 21.4933 71.0934 21.4933C72.2875 21.4933 73.206 22.5037 73.206 23.8815C73.206 25.2593 72.2875 26.2696 71.0934 26.2696ZM93.5053 16.0741H89.372V27.5556H91.1171V23.2385H93.5053C95.4342 23.2385 97.2712 21.8607 97.2712 19.6563C97.2712 17.4518 95.4342 16.0741 93.5053 16.0741V16.0741ZM93.5972 21.5852H91.1171V17.6356H93.5972C94.8831 17.6356 95.6179 18.7378 95.6179 19.5644C95.526 20.5748 94.7912 21.5852 93.5972 21.5852ZM104.16 19.9319C102.874 19.9319 101.588 20.483 101.129 21.677L102.69 22.32C103.058 21.677 103.609 21.4933 104.252 21.4933C105.17 21.4933 105.997 22.0444 106.089 22.963V23.0548C105.813 22.8711 105.079 22.5956 104.344 22.5956C102.69 22.5956 101.037 23.5141 101.037 25.1674C101.037 26.7289 102.415 27.7393 103.885 27.7393C105.079 27.7393 105.63 27.1881 106.089 26.637H106.181V27.5556H107.834V23.1467C107.65 21.1259 106.089 19.9319 104.16 19.9319V19.9319ZM103.976 26.2696C103.425 26.2696 102.599 25.9941 102.599 25.2593C102.599 24.3407 103.609 24.0652 104.436 24.0652C105.17 24.0652 105.538 24.2489 105.997 24.4326C105.813 25.5348 104.895 26.2696 103.976 26.2696V26.2696ZM113.621 20.2074L111.692 25.1674H111.6L109.579 20.2074H107.742L110.773 27.1881L109.028 31.0459H110.773L115.458 20.2074H113.621V20.2074ZM98.1897 27.5556H99.9349V16.0741H98.1897V27.5556Z" fill="white"/>
<path d="M9.55271 6.88892C9.27715 7.16447 9.1853 7.62373 9.1853 8.17484V28.4741C9.1853 29.0252 9.36901 29.4845 9.64456 29.76L9.73641 29.8519L21.126 18.4623V18.2785L9.55271 6.88892Z" fill="url(#paint0_linear_142_21)"/>
<path d="M24.8001 22.32L21.0342 18.5541V18.2785L24.8001 14.5126L24.892 14.6044L29.3927 17.1763C30.6786 17.9111 30.6786 19.1052 29.3927 19.84L24.8001 22.32Z" fill="url(#paint1_linear_142_21)"/>
<path d="M24.8918 22.2281L21.034 18.3704L9.55249 29.8518C10.0117 30.3111 10.6547 30.3111 11.4814 29.9437L24.8918 22.2281" fill="url(#paint2_linear_142_21)"/>
<path d="M24.8918 14.5126L11.4814 6.88885C10.6547 6.4296 10.0117 6.52145 9.55249 6.98071L21.034 18.3703L24.8918 14.5126V14.5126Z" fill="url(#paint3_linear_142_21)"/>
<path opacity="0.2" d="M24.7999 22.1364L11.4814 29.6682C10.7466 30.1275 10.1036 30.0356 9.64434 29.6682L9.55249 29.7601L9.64434 29.8519C10.1036 30.2193 10.7466 30.3112 11.4814 29.8519L24.7999 22.1364Z" fill="black"/>
<path opacity="0.12" d="M9.55271 29.6681C9.27715 29.3926 9.1853 28.9333 9.1853 28.3822V28.4741C9.1853 29.0252 9.36901 29.4844 9.64456 29.76V29.6681H9.55271ZM29.3927 19.5644L24.8001 22.1363L24.892 22.2281L29.3927 19.6563C30.0357 19.2889 30.3112 18.8296 30.3112 18.3704C30.3112 18.8296 29.9438 19.197 29.3927 19.5644V19.5644Z" fill="black"/>
<path opacity="0.25" d="M11.4816 6.98077L29.3927 17.1763C29.9438 17.5437 30.3112 17.9111 30.3112 18.3704C30.3112 17.9111 30.0357 17.4519 29.3927 17.0845L11.4816 6.98077C10.1957 6.15411 9.1853 6.70522 9.1853 8.17485V8.2667C9.1853 6.88892 10.1957 6.24596 11.4816 6.98077Z" fill="white"/>
</g>
</g>
<defs>
<linearGradient id="paint0_linear_142_21" x1="20.0192" y1="7.99573" x2="4.60373" y2="23.4103" gradientUnits="userSpaceOnUse">
<stop stop-color="#00A0FF"/>
<stop offset="0.007" stop-color="#00A1FF"/>
<stop offset="0.26" stop-color="#00BEFF"/>
<stop offset="0.512" stop-color="#00D2FF"/>
<stop offset="0.76" stop-color="#00DFFF"/>
<stop offset="1" stop-color="#00E3FF"/>
</linearGradient>
<linearGradient id="paint1_linear_142_21" x1="31.0773" y1="18.4163" x2="8.85187" y2="18.4163" gradientUnits="userSpaceOnUse">
<stop stop-color="#FFE000"/>
<stop offset="0.409" stop-color="#FFBD00"/>
<stop offset="0.775" stop-color="#FFA500"/>
<stop offset="1" stop-color="#FF9C00"/>
</linearGradient>
<linearGradient id="paint2_linear_142_21" x1="22.7939" y1="20.4692" x2="1.89021" y2="41.3728" gradientUnits="userSpaceOnUse">
<stop stop-color="#FF3A44"/>
<stop offset="1" stop-color="#C31162"/>
</linearGradient>
<linearGradient id="paint3_linear_142_21" x1="6.66926" y1="0.194692" x2="16.0042" y2="9.5296" gradientUnits="userSpaceOnUse">
<stop stop-color="#32A071"/>
<stop offset="0.069" stop-color="#2DA771"/>
<stop offset="0.476" stop-color="#15CF74"/>
<stop offset="0.801" stop-color="#06E775"/>
<stop offset="1" stop-color="#00F076"/>
</linearGradient>
<clipPath id="clip0_142_21">
<rect width="124" height="37" fill="white"/>
</clipPath>
<clipPath id="clip1_142_21">
<rect width="124" height="36.7407" fill="white"/>
</clipPath>
</defs>
</svg>
