<svg width="24" height="24" viewBox="0 0 24 24" fill="none" xmlns="http://www.w3.org/2000/svg">
<g clip-path="url(#clip0_69_22)">
<path d="M22.8 4.8252C22.8036 4.65 22.7916 3.0672 21.24 1.5432C19.7124 0.0432 18.1716 0 18 0H5.9952C5.7084 0 4.2036 0.0756001 2.7456 1.5624C1.2432 3.0936 1.2 4.6308 1.2 4.8V8.4H0V12H1.2V19.2C1.2 20.0808 1.6872 20.8476 2.4 21.2652V22.8C2.4 23.1183 2.52643 23.4235 2.75147 23.6485C2.97652 23.8736 3.28174 24 3.6 24H4.8C5.11826 24 5.42348 23.8736 5.64853 23.6485C5.87357 23.4235 6 23.1183 6 22.8V21.6H18V22.8C18 23.1183 18.1264 23.4235 18.3515 23.6485C18.5765 23.8736 18.8817 24 19.2 24H20.4C20.7183 24 21.0235 23.8736 21.2485 23.6485C21.4736 23.4235 21.6 23.1183 21.6 22.8V21.2676C21.9641 21.0588 22.2667 20.7578 22.4774 20.3948C22.688 20.0318 22.7993 19.6197 22.8 19.2V12H24V8.4H22.8V4.8252ZM8.4 2.4H15.6V4.8H8.4V2.4ZM5.4 19.2C4.92245 19.1998 4.46452 19.01 4.12696 18.6722C3.78939 18.3344 3.59984 17.8764 3.6 17.3988C3.60016 16.9213 3.79002 16.4633 4.12781 16.1258C4.4656 15.7882 4.92365 15.5986 5.4012 15.5988C5.87875 15.599 6.33668 15.7888 6.67424 16.1266C7.01181 16.4644 7.20136 16.9225 7.2012 17.4C7.20104 17.8775 7.01118 18.3355 6.67339 18.673C6.3356 19.0106 5.87755 19.2002 5.4 19.2V19.2ZM10.8 13.2H3.6V7.2H10.8V13.2ZM18.6 19.2C18.1225 19.1998 17.6645 19.01 17.327 18.6722C16.9894 18.3344 16.7998 17.8764 16.8 17.3988C16.8002 16.9213 16.99 16.4633 17.3278 16.1258C17.6656 15.7882 18.1237 15.5986 18.6012 15.5988C19.0787 15.599 19.5367 15.7888 19.8742 16.1266C20.2118 16.4644 20.4014 16.9225 20.4012 17.4C20.401 17.8775 20.2112 18.3355 19.8734 18.673C19.5356 19.0106 19.0775 19.2002 18.6 19.2V19.2ZM20.4 13.2H13.2V7.2H20.4V13.2Z" fill="black"/>
</g>
<defs>
<clipPath id="clip0_69_22">
<rect width="24" height="24" fill="white"/>
</clipPath>
</defs>
</svg>
